<svg xmlns="http://www.w3.org/2000/svg" width="1030" height="340.5" viewBox="0 0 1030 340.5">
  <g id="Groupe_80" data-name="Groupe 80" transform="translate(244.5 -740)">
    <path id="Rectangle_34" data-name="Rectangle 34" d="M169.5,0h0A169.5,169.5,0,0,1,339,169.5V448a0,0,0,0,1,0,0H0a0,0,0,0,1,0,0V169.5A169.5,169.5,0,0,1,169.5,0Z" transform="translate(337.5 1079) rotate(-90)" fill="#f39c6b" opacity="0.198"/>
    <path id="Rectangle_39" data-name="Rectangle 39" d="M169.5,0h0A169.5,169.5,0,0,1,339,169.5V448a0,0,0,0,1,0,0H0a0,0,0,0,1,0,0V169.5A169.5,169.5,0,0,1,169.5,0Z" transform="translate(203.5 741.5) rotate(90)" fill="#f39c6b" opacity="0.198"/>
  </g>
</svg>
