<?xml version="1.0" encoding="UTF-8"?>
<svg id="Calque_2" data-name="Calque 2" xmlns="http://www.w3.org/2000/svg" viewBox="0 0 411 931">
  <defs>
    <style>
      .cls-1 {
        fill: #fff;
      }

      .cls-2 {
        fill: #f39c6b;
        opacity: .198;
      }

      .cls-2, .cls-3 {
        isolation: isolate;
      }
    </style>
  </defs>
  <g id="Calque_1-2" data-name="Calque 1">
    <g id="Groupe_38" data-name="Groupe 38">
      <path id="Rectangle_66" data-name="Rectangle 66" class="cls-2" d="m205.5,0h0c113.495,0,205.5,92.005,205.5,205.5v725.5H0V205.5C0,92.005,92.005,0,205.5,0Z"/>
      <g id="Guzel" class="cls-3">
        <g class="cls-3">
          <path class="cls-1" d="m205.221,797.916c-38.699,0-65.358-28.38-65.358-64.843,0-18.92,7.052-36.291,20.468-48.503l11.867,11.868c-10.147,8.6-16.512,22.016-16.512,36.635,0,27.52,20.812,47.815,49.535,47.815s49.192-20.468,49.192-47.472c0-23.907-15.823-41.623-41.451-43.516v47.472h-14.964v-65.015h6.536c40.764,0,65.532,25.972,65.532,61.059,0,36.119-26.66,64.499-64.844,64.499Z"/>
          <path class="cls-1" d="m270.065,619.039c0,22.36-14.276,35.775-38.355,35.775h-54.524v-15.823h54.007c15.479,0,23.908-7.053,23.908-19.952,0-13.071-8.429-20.124-23.908-20.124h-54.007v-15.823h54.524c24.079,0,38.355,13.244,38.355,35.947Z"/>
          <path class="cls-1" d="m265.42,569.333l-73.788-46.439v43.516l-14.447-2.752v-64.671h2.408l73.959,46.438v-46.438l14.447,2.58v67.767h-2.58Z"/>
          <path class="cls-1" d="m222.937,490.039c-27.175,0-47.471-19.264-47.471-45.579,0-23.047,15.651-43.687,49.191-43.171v73.958c17.889-.859,31.132-13.243,31.132-31.991,0-13.244-6.536-24.079-17.544-30.787l8.084-11.008c12.384,7.912,23.392,21.671,23.392,41.967,0,27.864-20.123,46.611-46.783,46.611Zm-10.147-73.271c-16.168,2.924-23.909,14.276-23.909,27.863,0,15.308,10.148,26.488,23.909,29.756v-57.619Z"/>
          <path class="cls-1" d="m135.39,383.056v-15.824h132.61v15.824h-132.61Z"/>
        </g>
      </g>
      <g id="Diag" class="cls-3">
        <g class="cls-3">
          <path class="cls-1" d="m192.536,351.391v-16.933c0-21.013,14.587-37.538,37.233-37.538s37.231,16.525,37.231,37.538v16.933h-74.464Zm70.588-16.933c0-19.279-13.465-33.355-33.355-33.355-19.789,0-33.357,14.077-33.357,33.355v12.853h66.712v-12.853Z"/>
          <path class="cls-1" d="m192.536,270.71v-4.08h74.464v4.08h-74.464Z"/>
          <path class="cls-1" d="m192.536,217.365v-3.672l74.464-26.113v4.386l-19.381,6.732v33.56l19.381,6.732v4.284l-74.464-25.909Zm51.208-17.341l-44.577,15.505,44.577,15.403v-30.908Z"/>
          <path class="cls-1" d="m229.973,171.262c-22.85,0-38.457-17.239-38.457-37.946,0-10.812,4.182-21.115,11.118-27.746l3.265,2.856c-6.427,5.814-10.405,14.893-10.405,24.889,0,18.973,14.486,33.764,34.479,33.764,19.585,0,34.069-14.485,34.069-33.458,0-17.137-11.833-30.397-32.54-31.315v33.152h-3.876v-37.232h1.734c24.787,0,38.66,15.913,38.66,35.396,0,20.707-15.607,37.64-38.048,37.64Z"/>
        </g>
      </g>
    </g>
  </g>
</svg>