<svg xmlns="http://www.w3.org/2000/svg" width="236.186" height="358.142" viewBox="0 0 236.186 358.142"><g transform="translate(-138.814 -1542.929)" opacity="0.402"><path d="M0,0H45.142a0,0,0,0,1,0,0V33.615A22.571,22.571,0,0,1,22.571,56.186h0A22.571,22.571,0,0,1,0,33.615V0A0,0,0,0,1,0,0Z" transform="translate(375 1542.929) rotate(90)" fill="#29524a" opacity="0.1"/><path d="M0,0H45.142a0,0,0,0,1,0,0V63.615A22.571,22.571,0,0,1,22.571,86.186h0A22.571,22.571,0,0,1,0,63.615V0A0,0,0,0,1,0,0Z" transform="translate(375 1594.929) rotate(90)" fill="#29524a" opacity="0.15"/><path d="M0,0H45.142a0,0,0,0,1,0,0V93.615a22.571,22.571,0,0,1-22.571,22.571h0A22.571,22.571,0,0,1,0,93.615V0A0,0,0,0,1,0,0Z" transform="translate(375 1646.929) rotate(90)" fill="#29524a" opacity="0.198"/><path d="M0,0H45.142a0,0,0,0,1,0,0V123.615a22.571,22.571,0,0,1-22.571,22.571h0A22.571,22.571,0,0,1,0,123.615V0A0,0,0,0,1,0,0Z" transform="translate(375 1699.929) rotate(90)" fill="#29524a" opacity="0.25"/><path d="M0,0H45.142a0,0,0,0,1,0,0V153.615a22.571,22.571,0,0,1-22.571,22.571h0A22.571,22.571,0,0,1,0,153.615V0A0,0,0,0,1,0,0Z" transform="translate(375 1751.929) rotate(90)" fill="#29524a" opacity="0.3"/><path d="M0,0H45.142a0,0,0,0,1,0,0V183.615a22.571,22.571,0,0,1-22.571,22.571h0A22.571,22.571,0,0,1,0,183.615V0A0,0,0,0,1,0,0Z" transform="translate(375 1803.929) rotate(90)" fill="#29524a" opacity="0.35"/><path d="M0,0H45.142a0,0,0,0,1,0,0V213.615a22.571,22.571,0,0,1-22.571,22.571h0A22.571,22.571,0,0,1,0,213.615V0A0,0,0,0,1,0,0Z" transform="translate(375 1855.929) rotate(90)" fill="#29524a" opacity="0.397"/></g></svg>