<svg xmlns="http://www.w3.org/2000/svg" width="1189.964" height="978.512" viewBox="0 0 1189.964 978.512"><g opacity="0.402"><path d="M0,0H123.337a0,0,0,0,1,0,0V410.62a61.669,61.669,0,0,1-61.669,61.669h0A61.669,61.669,0,0,1,0,410.62V0A0,0,0,0,1,0,0Z" transform="translate(1189.963) rotate(90)" fill="#29524a" opacity="0.1"/><path d="M0,0H123.337a0,0,0,0,1,0,0V530.233A61.669,61.669,0,0,1,61.669,591.9h0A61.669,61.669,0,0,1,0,530.233V0A0,0,0,0,1,0,0Z" transform="translate(1189.964 142.074) rotate(90)" fill="#29524a" opacity="0.15"/><path d="M0,0H123.337a0,0,0,0,1,0,0V649.845a61.669,61.669,0,0,1-61.669,61.669h0A61.669,61.669,0,0,1,0,649.845V0A0,0,0,0,1,0,0Z" transform="translate(1189.964 284.148) rotate(90)" fill="#29524a" opacity="0.198"/><path d="M0,0H123.337a0,0,0,0,1,0,0V769.458a61.669,61.669,0,0,1-61.669,61.669h0A61.669,61.669,0,0,1,0,769.458V0A0,0,0,0,1,0,0Z" transform="translate(1189.964 428.954) rotate(90)" fill="#29524a" opacity="0.25"/><path d="M0,0H123.337a0,0,0,0,1,0,0V889.07a61.669,61.669,0,0,1-61.669,61.669h0A61.669,61.669,0,0,1,0,889.07V0A0,0,0,0,1,0,0Z" transform="translate(1189.964 571.027) rotate(90)" fill="#29524a" opacity="0.3"/><path d="M0,0H123.337a0,0,0,0,1,0,0V1008.682a61.669,61.669,0,0,1-61.669,61.669h0A61.669,61.669,0,0,1,0,1008.682V0A0,0,0,0,1,0,0Z" transform="translate(1189.964 713.101) rotate(90)" fill="#29524a" opacity="0.35"/><path d="M0,0H123.337a0,0,0,0,1,0,0V1128.295a61.669,61.669,0,0,1-61.669,61.669h0A61.669,61.669,0,0,1,0,1128.295V0A0,0,0,0,1,0,0Z" transform="translate(1189.963 855.175) rotate(90)" fill="#29524a" opacity="0.397"/></g></svg>