<svg xmlns="http://www.w3.org/2000/svg" xmlns:xlink="http://www.w3.org/1999/xlink" width="375" height="2623" viewBox="0 0 375 2623"><defs><clipPath id="b"><rect width="375" height="2623"/></clipPath></defs><g id="a" clip-path="url(#b)"><g transform="translate(0 7)"><g transform="translate(195.728 333.929)" opacity="0.402"><path d="M0,0H45.142a0,0,0,0,1,0,0V198.762a22.571,22.571,0,0,1-22.571,22.571h0A22.571,22.571,0,0,1,0,198.762V0A0,0,0,0,1,0,0Z" transform="translate(354.132) rotate(90)" fill="#9cb988" opacity="0.1"/><path d="M0,0H45.142a0,0,0,0,1,0,0V198.762a22.571,22.571,0,0,1-22.571,22.571h0A22.571,22.571,0,0,1,0,198.762V0A0,0,0,0,1,0,0Z" transform="translate(331.999 52) rotate(90)" fill="#9cb988" opacity="0.15"/><path d="M0,0H45.142a0,0,0,0,1,0,0V198.762a22.571,22.571,0,0,1-22.571,22.571h0A22.571,22.571,0,0,1,0,198.762V0A0,0,0,0,1,0,0Z" transform="translate(309.866 104) rotate(90)" fill="#9cb988" opacity="0.198"/><path d="M0,0H45.142a0,0,0,0,1,0,0V198.762a22.571,22.571,0,0,1-22.571,22.571h0A22.571,22.571,0,0,1,0,198.762V0A0,0,0,0,1,0,0Z" transform="translate(287.733 157) rotate(90)" fill="#9cb988" opacity="0.25"/><path d="M0,0H45.142a0,0,0,0,1,0,0V198.762a22.571,22.571,0,0,1-22.571,22.571h0A22.571,22.571,0,0,1,0,198.762V0A0,0,0,0,1,0,0Z" transform="translate(265.599 209) rotate(90)" fill="#9cb988" opacity="0.3"/><path d="M0,0H45.142a0,0,0,0,1,0,0V198.762a22.571,22.571,0,0,1-22.571,22.571h0A22.571,22.571,0,0,1,0,198.762V0A0,0,0,0,1,0,0Z" transform="translate(243.466 261) rotate(90)" fill="#9cb988" opacity="0.35"/><path d="M0,0H45.142a0,0,0,0,1,0,0V198.762a22.571,22.571,0,0,1-22.571,22.571h0A22.571,22.571,0,0,1,0,198.762V0A0,0,0,0,1,0,0Z" transform="translate(221.333 313) rotate(90)" fill="#9cb988" opacity="0.397"/></g><path d="M0,0H127a0,0,0,0,1,0,0V244.969a63.5,63.5,0,0,1-63.5,63.5h0A63.5,63.5,0,0,1,0,244.969V0A0,0,0,0,1,0,0Z" transform="translate(375 1365) rotate(90)" fill="#f39c6b" opacity="0.198"/><path d="M0,0H55a0,0,0,0,1,0,0V280.969a27.5,27.5,0,0,1-27.5,27.5h0A27.5,27.5,0,0,1,0,280.969V0A0,0,0,0,1,0,0Z" transform="translate(375 2138) rotate(90)" fill="#f39c6b" opacity="0.198"/><path d="M27.5,0h0A27.5,27.5,0,0,1,55,27.5V308.469a0,0,0,0,1,0,0H0a0,0,0,0,1,0,0V27.5A27.5,27.5,0,0,1,27.5,0Z" transform="translate(-98.031 2138) rotate(90)" fill="#f39c6b" opacity="0.198"/><circle cx="136" cy="136" r="136" transform="translate(-51 -51)" fill="#f39c6b" opacity="0.125"/></g></g></svg>