<svg xmlns="http://www.w3.org/2000/svg" width="1920" height="399.241" viewBox="0 0 1920 399.241"><g transform="translate(697.511 -1824.902)"><path d="M46.286,0h0A46.286,46.286,0,0,1,92.571,46.286V730.141a0,0,0,0,1,0,0H0a0,0,0,0,1,0,0V46.286A46.286,46.286,0,0,1,46.286,0Z" transform="translate(32.63 1824.902) rotate(90)" fill="#f39c6b" opacity="0.198"/><path d="M0,0H92.571a0,0,0,0,1,0,0V819.573a46.286,46.286,0,0,1-46.286,46.286h0A46.286,46.286,0,0,1,0,819.573V0A0,0,0,0,1,0,0Z" transform="translate(1222.489 2131.571) rotate(90)" fill="#f39c6b" opacity="0.198"/></g></svg>