<svg xmlns="http://www.w3.org/2000/svg" width="520" height="201.142" viewBox="0 0 520 201.142"><g transform="translate(75.5 -1196.429)"><path d="M46.286,0h0A46.286,46.286,0,0,1,92.571,46.286V188a0,0,0,0,1,0,0H0a0,0,0,0,1,0,0V46.286A46.286,46.286,0,0,1,46.286,0Z" transform="translate(112.5 1196.429) rotate(90)" fill="#f39c6b" opacity="0.198"/><path d="M0,0H92.571a0,0,0,0,1,0,0V221.714A46.286,46.286,0,0,1,46.286,268h0A46.286,46.286,0,0,1,0,221.714V0A0,0,0,0,1,0,0Z" transform="translate(444.5 1305) rotate(90)" fill="#f39c6b" opacity="0.198"/></g></svg>